<?xml version="1.0" standalone="no"?><!DOCTYPE svg PUBLIC "-//W3C//DTD SVG 1.1//EN" "http://www.w3.org/Graphics/SVG/1.1/DTD/svg11.dtd"><svg t="1666258236194" class="icon" viewBox="0 0 1024 1024" version="1.1" xmlns="http://www.w3.org/2000/svg" p-id="2597" xmlns:xlink="http://www.w3.org/1999/xlink" width="500" height="500"><path d="M512 36.571429s109.714286 43.885714 215.771429 43.885714c102.4 0 234.057143-32.914286 234.057142-32.914286s21.942857 76.8 25.6 186.514286c0 296.228571-95.085714 479.085714-223.085714 585.142857C687.542857 881.371429 512 987.428571 512 987.428571s-160.914286-102.4-230.4-164.571428C153.6 716.8 43.885714 530.285714 43.885714 237.714286c0-117.028571 21.942857-190.171429 21.942857-190.171429s128 32.914286 234.057143 32.914286C405.942857 80.457143 512 36.571429 512 36.571429z m0 76.8V512H150.308571c41.545143 125.074286 108.251429 205.604571 167.862858 256 51.2 43.885714 142.628571 106.057143 193.828571 138.971429V512l366.518857 0.073143c23.771429-80.530286 35.766857-172.763429 35.766857-274.358857 0-43.885714-3.657143-80.457143-7.314285-106.057143-51.2 10.971429-120.685714 21.942857-182.857143 21.942857-84.114286 0-168.228571-25.6-212.114286-40.228571z" p-id="2598" fill="#ffffff"></path></svg>