<?xml version="1.0" standalone="no"?><!DOCTYPE svg PUBLIC "-//W3C//DTD SVG 1.1//EN" "http://www.w3.org/Graphics/SVG/1.1/DTD/svg11.dtd"><svg t="1646878306247" class="icon" viewBox="0 0 1024 1024" version="1.1" xmlns="http://www.w3.org/2000/svg" p-id="5094" xmlns:xlink="http://www.w3.org/1999/xlink" width="500" height="500"><defs><style type="text/css"></style></defs><path d="M800 288H224c-17.6 0-32-14.4-32-32s14.4-32 32-32h576c17.6 0 32 14.4 32 32s-14.4 32-32 32zM544 448H224c-17.6 0-32-14.4-32-32s14.4-32 32-32h320c17.6 0 32 14.4 32 32s-14.4 32-32 32zM352 608H224c-17.6 0-32-14.4-32-32s14.4-32 32-32h128c17.6 0 32 14.4 32 32s-14.4 32-32 32zM706.07 852.08c-2.16 0-4.32-0.05-6.5-0.14-38.73-1.71-74.25-18.2-100.04-46.44-24.89-27.27-37.66-62.38-35.95-98.86 3.59-76.56 70.34-136.03 148.85-132.57 38.73 1.71 74.25 18.2 100.04 46.44 24.89 27.27 37.66 62.38 35.95 98.86-3.5 74.43-66.72 132.71-142.35 132.71z m-0.12-214.16c-41.72 0-76.55 31.48-78.44 71.72-0.91 19.37 5.94 38.09 19.28 52.71 14.24 15.59 33.98 24.7 55.59 25.65 1.22 0.05 2.45 0.08 3.66 0.08 41.72 0 76.55-31.48 78.44-71.72 0.91-19.37-5.94-38.09-19.28-52.71-14.24-15.59-33.98-24.7-55.59-25.65a89.77 89.77 0 0 0-3.66-0.08z" p-id="5095" fill="#ffffff"></path><path d="M734.48 714.25l-55.23-2.43-5.02 106.97 55.22 2.43z" p-id="5096" fill="#ffffff"></path><path d="M691.97 735.59l29.79-45.1-93.15-57.7-29.78 45.1z" p-id="5097" fill="#ffffff"></path><path d="M694.14 689.27l25.44 47.54 98.17-49.28L792.31 640z" p-id="5098" fill="#ffffff"></path><path d="M655.03 713.04a51.83 50.19 0 1 0 103.66 0 51.83 50.19 0 1 0-103.66 0Z" p-id="5099" fill="#ffffff"></path><path d="M706.1 960c-3.86 0-7.73-0.08-11.59-0.25-8.88-0.39-17.87-1.25-26.72-2.55l-29-4.26 1.7-29.26c0.33-5.62-1.7-11.05-5.69-15.29-8.67-9.2-24.06-9.85-33.6-1.42-0.59 0.52-1.18 1.11-1.76 1.74l-18.99 20.82-23.05-16.2c-21.35-15-40.11-33.06-55.78-53.68l-18.16-23.9 22.69-19.65c4.49-3.88 7.1-9.13 7.37-14.78 0.25-5.4-1.69-10.66-5.47-14.81-4.23-4.63-10.15-7.34-16.67-7.63-0.85-0.04-1.75-0.03-2.69 0.03l-28.83 1.75-4.68-28.51c-2.72-16.58-3.7-33.55-2.91-50.43 0.41-8.7 1.3-17.51 2.66-26.19l4.48-28.57 28.88 1.57c6.52 0.36 12.71-1.75 17.43-5.92 4.38-3.87 6.93-9.07 7.18-14.66 0.25-5.52-1.78-10.86-5.72-15.04-0.54-0.57-1.14-1.14-1.8-1.71l-22.79-19.5 17.98-24.01c15.51-20.7 34.16-38.88 55.43-54.04l22.96-16.36L598.08 518c4.23 4.58 10.12 7.26 16.58 7.54 12.84 0.57 23.79-8.66 24.35-20.57 0.03-0.72 0.02-1.48-0.03-2.27l-1.9-29.24 28.96-4.46a263.041 263.041 0 0 1 78.17-0.23l29 4.26-1.7 29.26c-0.33 5.62 1.69 11.05 5.69 15.29 8.68 9.2 24.06 9.85 33.6 1.42 0.59-0.52 1.18-1.11 1.76-1.74l18.99-20.81 23.05 16.2c21.35 15 40.11 33.06 55.78 53.68l18.16 23.9-22.69 19.65c-4.49 3.88-7.1 9.13-7.37 14.78-0.25 5.4 1.69 10.66 5.47 14.81 4.23 4.63 10.15 7.34 16.67 7.63 0.85 0.04 1.75 0.03 2.69-0.03l28.83-1.75 4.68 28.51c2.72 16.58 3.7 33.55 2.91 50.43-0.41 8.7-1.3 17.51-2.66 26.19l-4.48 28.57-28.88-1.57c-6.52-0.35-12.71 1.75-17.43 5.92-4.38 3.87-6.93 9.07-7.18 14.66-0.25 5.52 1.78 10.86 5.72 15.04 0.54 0.57 1.14 1.14 1.8 1.71l22.79 19.5-17.98 24.01c-15.51 20.7-34.16 38.88-55.43 54.04l-22.96 16.36-19.12-20.71c-4.23-4.58-10.12-7.26-16.58-7.54-12.85-0.56-23.79 8.66-24.35 20.57-0.03 0.72-0.02 1.48 0.03 2.27l1.9 29.24-28.96 4.46c-13.13 2-26.49 3.02-39.86 3.02z m-5.84-64.09c4.28 0.13 8.57 0.11 12.84-0.04 11.72-35.86 46.87-61.16 87.05-59.39 12.89 0.57 25.23 3.84 36.33 9.5 2.82-2.56 5.55-5.21 8.2-7.93-6.89-13.09-10.21-27.79-9.53-42.92 1.05-23.05 11.25-44.25 28.72-59.7 9.42-8.32 20.32-14.42 32.06-18.06 0.08-3.34 0.07-6.68-0.03-10.02-14.99-4.51-28.48-12.95-39.23-24.72-15.33-16.79-23.19-38.44-22.14-60.96 0.58-12.29 3.75-24.03 9.23-34.66-2.67-2.71-5.43-5.35-8.27-7.9-13.6 7.07-28.93 10.48-44.7 9.79-23.11-1.02-44.48-10.75-60.18-27.4-8.68-9.21-15.05-19.89-18.9-31.43-4.28-0.13-8.57-0.11-12.84 0.04-11.33 34.68-44.58 59.48-83.09 59.48-1.32 0-2.63-0.03-3.96-0.09-12.89-0.57-25.23-3.84-36.33-9.5-2.82 2.56-5.55 5.21-8.2 7.93 6.89 13.09 10.21 27.79 9.53 42.92-1.05 23.05-11.25 44.25-28.72 59.7-9.42 8.33-20.32 14.42-32.06 18.06-0.08 3.34-0.07 6.68 0.03 10.02 14.99 4.51 28.48 12.95 39.23 24.72 15.33 16.79 23.19 38.44 22.14 60.96-0.58 12.29-3.75 24.03-9.23 34.66 2.67 2.71 5.43 5.35 8.27 7.9 13.6-7.07 28.93-10.48 44.7-9.79 23.11 1.02 44.48 10.75 60.18 27.4 8.69 9.21 15.06 19.9 18.9 31.43z" p-id="5100" fill="#ffffff"></path><path d="M430.12 735.81l-302.8-0.85 1.7-607.93 768 2.16-1.07 382.57c27.15 26.03 48.99 57.54 63.74 92.77l1.37-487.16c0.04-13.89-5.33-26.96-15.13-36.81-9.79-9.85-22.84-15.29-36.73-15.33L117.2 63c-28.67-0.11-52.07 23.18-52.15 51.85l-1.77 631.93c-0.04 13.89 5.33 26.96 15.13 36.81 9.79 9.85 22.84 15.29 36.73 15.33l328.47 0.93c-6.92-20.38-11.51-41.83-13.49-64.04zM448 812.57V928c0 17.6 14.4 32 32 32h64c9.11 0 17.35-3.86 23.2-10.02-53.71-30.86-96.05-79.28-119.2-137.41z" p-id="5101" fill="#ffffff"></path><path d="M500.09 896H276c-11 0-20 9-20 20v24c0 11 9 20 20 20h310.95c-33.05-15.5-62.53-37.35-86.86-64z" p-id="5102" fill="#ffffff"></path></svg>