<?xml version="1.0" standalone="no"?><!DOCTYPE svg PUBLIC "-//W3C//DTD SVG 1.1//EN" "http://www.w3.org/Graphics/SVG/1.1/DTD/svg11.dtd"><svg t="1644462152029" class="icon" viewBox="0 0 1079 1024" version="1.1" xmlns="http://www.w3.org/2000/svg" p-id="6103" xmlns:xlink="http://www.w3.org/1999/xlink" width="526.85546875" height="500"><defs><style type="text/css"></style></defs><path d="M922.624 784.384V901.12c0 41.984-33.792 76.8-76.8 76.8H76.8c-41.984 0-76.8-34.816-76.8-76.8V323.584c0-41.984 33.792-76.8 76.8-76.8H845.824c41.984 0 76.8 34.816 76.8 76.8v460.8zM616.448 429.056c-49.152 0-89.088 40.96-89.088 90.112 0 49.152 39.936 90.112 89.088 90.112 49.152 0 89.088-40.96 89.088-90.112 0-49.152-39.936-90.112-89.088-90.112z m2.048 403.456c177.152 0 176.128 0 176.128-22.528 0-83.968-58.368-156.672-141.312-174.08l-18.432 17.408h4.096l17.408 90.112c2.048 12.288-2.048 29.696-11.264 38.912l-27.648 28.672-29.696-28.672c-9.216-8.192-14.336-25.6-12.288-37.888l17.408-90.112h4.096L579.584 634.88c-80.896 17.408-141.312 89.088-141.312 175.104 0 22.528 3.072 22.528 180.224 22.528zM125.952 662.528c0 15.36 14.336 25.6 29.696 25.6H293.888c15.36 0 27.648-12.288 27.648-27.648 0-15.36-12.288-27.648-27.648-27.648H154.624c-15.36 1.024-28.672 14.336-28.672 29.696z m0-117.76c0 15.36 13.312 27.648 27.648 27.648h318.464c14.336 0 26.624-12.288 26.624-27.648 0-15.36-12.288-27.648-26.624-27.648H153.6c-14.336 0-27.648 11.264-27.648 27.648z m0-113.664c0 15.36 13.312 25.6 28.672 25.6h245.76c15.36 0 27.648-11.264 27.648-26.624s-12.288-26.624-27.648-26.624h-245.76c-15.36 0-28.672 12.288-28.672 27.648z m0 0" p-id="6104"></path><path d="M994.304 46.08h-768c-41.984 0-79.872 55.296-79.872 98.304v57.344h758.784c41.984 0 69.632 40.96 69.632 82.944v539.648h20.48c41.984 0 83.968-59.392 83.968-102.4V144.384c-1.024-43.008-41.984-98.304-84.992-98.304z m0 0" p-id="6105"></path></svg>