<svg t="1718690390315" class="icon" viewBox="0 0 1024 1024" version="1.1" xmlns="http://www.w3.org/2000/svg" p-id="6715" width="200" height="200"><path d="M788.48 739.328c-90.624 0-164.352-73.728-164.352-164.352 0-90.624 73.728-164.352 164.352-164.352s164.352 73.728 164.352 164.352c0 90.624-73.728 164.352-164.352 164.352z m0-272.384c-59.392 0-108.032 48.64-108.032 108.032s48.64 108.032 108.032 108.032 108.032-48.64 108.032-108.032-48.64-108.032-108.032-108.032z" p-id="6716" fill="#ffffff"></path><path d="M984.576 813.056c-7.68 0-15.36-3.072-20.48-9.216l-96.768-104.448c-10.752-11.264-9.728-29.184 1.536-39.936 11.264-10.752 29.184-9.728 39.936 1.536l96.768 104.448c10.752 11.264 9.728 29.184-1.536 39.936-5.632 5.12-12.8 7.68-19.456 7.68zM514.56 939.52c-6.656 0-13.312-2.56-17.92-7.68l-140.288-140.8H35.84c-14.336 0-25.6-11.264-25.6-25.6v-650.24c0-14.336 11.264-25.6 25.6-25.6h957.44c14.336 0 25.6 11.264 25.6 25.6V460.8c0 14.336-11.264 25.6-25.6 25.6s-25.6-11.264-25.6-25.6V140.8H61.44v599.04h305.152c6.656 0 13.312 2.56 17.92 7.68l130.048 130.048 130.048-130.048c10.24-10.24 26.112-10.24 36.352 0 10.24 9.728 10.24 26.112 0 36.352L532.48 931.84c-4.608 5.12-11.264 7.68-17.92 7.68z" p-id="6717" fill="#ffffff"></path><path d="M263.68 460.8m-53.76 0a53.76 53.76 0 1 0 107.52 0 53.76 53.76 0 1 0-107.52 0Z" p-id="6718" fill="#ffffff"></path><path d="M514.56 460.8m-53.76 0a53.76 53.76 0 1 0 107.52 0 53.76 53.76 0 1 0-107.52 0Z" p-id="6719" fill="#ffffff"></path></svg>
