<?xml version="1.0" standalone="no"?><!DOCTYPE svg PUBLIC "-//W3C//DTD SVG 1.1//EN" "http://www.w3.org/Graphics/SVG/1.1/DTD/svg11.dtd"><svg t="1666258267325" class="icon" viewBox="0 0 1024 1024" version="1.1" xmlns="http://www.w3.org/2000/svg" p-id="2804" xmlns:xlink="http://www.w3.org/1999/xlink" width="500" height="500"><path d="M348.2 225.3H676c22.5 0 41-18.4 41-41 0-22.5-18.4-41-41-41h-20.5V92.2c0-39.4-32.3-71.7-71.7-71.7H440.3c-39.4 0-71.7 32.3-71.7 71.7v51.2h-20.5c-22.5 0-41 18.4-41 41 0.1 22.4 18.5 40.9 41.1 40.9z m102.4-122.9h122.9v41H450.6v-41zM512 675.2c124.1 0 233.4-72 300.4-181.2-67-109.2-176.2-166.3-300.4-166.3-124.1 0-233.4 59.6-300.4 168.8C281.1 605.6 390.4 675.2 512 675.2z m0-265.6c80 0 149 29.9 199.1 85.2-53.4 63.2-123.8 98.5-199.1 98.5-74.1 0-144.3-34.8-198.6-97C364 440 432.9 409.6 512 409.6z" p-id="2805" fill="#ffffff"></path><path d="M512.6 564c34.7 0 62-27 61.9-61.4 0-34.3-27.2-63.8-61.9-63.8s-63.2 28.2-63.2 62.6 28.5 62.6 63.2 62.6zM327.7 750.7c-22.5 0-41 18.4-41 41 0 22.5 18.4 41 41 41h368.6c22.5 0 41-18.4 41-41 0-22.5-18.4-41-41-41H327.7z" p-id="2806" fill="#ffffff"></path><path d="M839.7 143.4c-22.6 0-41 18.3-41 41s18.3 41 41 41c22.6 0 41 18.4 41 41v614.4c0 22.6-18.4 41-41 41H184.3c-22.6 0-41-18.4-41-41V266.2c0-22.6 18.4-41 41-41s41-18.3 41-41-18.3-41-41-41c-67.8 0-122.9 55.1-122.9 122.9v614.4c0 67.8 55.1 122.9 122.9 122.9h655.4c67.8 0 122.9-55.1 122.9-122.9V266.2c0-67.7-55.2-122.8-122.9-122.8z" p-id="2807" fill="#ffffff"></path></svg>