<?xml version="1.0" standalone="no"?><!DOCTYPE svg PUBLIC "-//W3C//DTD SVG 1.1//EN" "http://www.w3.org/Graphics/SVG/1.1/DTD/svg11.dtd"><svg t="1731548279698" class="icon" viewBox="0 0 1024 1024" version="1.1" xmlns="http://www.w3.org/2000/svg" p-id="5351" xmlns:xlink="http://www.w3.org/1999/xlink" width="500" height="500"><path d="M809.472 406.016h-2.56c-16.896 0-31.232 5.12-44.544 13.312-11.776-34.304-41.984-59.392-80.896-59.392-16.896 0-33.28 5.12-47.104 13.312-11.776-34.304-41.984-59.392-80.896-59.392-15.36 0-29.184 3.584-41.472 10.24V235.52c0-48.128-36.352-87.552-85.504-87.552-48.64 0-88.064 39.424-88.064 87.552v339.968l-53.76-53.248c-34.304-34.304-95.232-29.184-124.928 0-29.184 29.184-48.64 88.576-6.656 130.56l246.272 244.736c5.12 5.12 10.752 9.216 16.384 12.8 45.056 36.864 96.256 58.368 205.312 58.368 248.832 0 271.872-134.144 271.872-299.52v-175.104c1.024-48.64-34.304-88.064-83.456-88.064z m38.4 262.656c0 139.776-0.512 253.44-225.28 253.44-95.232 0-152.064-20.992-195.584-64l-233.472-231.936c-20.48-20.48-15.36-47.104 1.536-64 16.896-16.896 48.128-17.408 64-1.024 0 0 40.96 40.448 76.288 75.776 26.624 26.624 50.176 49.664 50.176 49.664v-441.856c0-23.04 18.944-41.472 41.984-41.472 23.04 0 38.912 18.432 38.912 41.472v281.088h0.512c-0.512 1.536-0.512 3.072-0.512 4.608 0 12.8 10.24 23.04 23.04 23.04s23.04-10.24 23.04-23.04c0-1.536 0-3.072-0.512-4.608h0.512v-115.2c0-23.04 16.896-41.472 39.936-41.472 0 0 40.96-0.512 40.96 41.472v152.064h0.512c-0.512 1.536-0.512 3.072-0.512 4.608 0 12.8 10.24 23.04 23.04 23.04s23.04-10.24 23.04-23.04c0-1.536 0-3.072-0.512-4.608h0.512v-105.984c0-23.04 16.384-41.472 39.424-41.472 0 0 41.984 2.56 41.984 41.472v133.632h0.512c-0.512 1.536-0.512 3.072-0.512 4.608 0 12.8 10.24 23.04 23.04 23.04s22.528-10.24 22.528-23.04c0-1.536 0-3.072-0.512-4.608h0.512v-91.136c0-23.04 17.408-41.472 40.448-41.472 0 0 40.448-1.536 40.448 41.472 0.512 0 0.512 132.608 0.512 169.472z m-543.232-302.592v-77.312c-7.168-16.384-11.776-34.816-11.776-54.272 0-73.216 59.392-133.12 133.12-133.12 73.216 0 133.12 59.392 133.12 133.12 0 10.24-1.024 19.968-3.072 29.184 16.896 0.512 31.744 7.68 43.008 18.944 4.096-15.36 6.656-31.232 6.656-47.616 0-98.816-80.384-179.2-179.2-179.2s-179.2 80.384-179.2 179.2c-0.512 51.712 22.016 98.304 57.344 131.072z" p-id="5352" fill="#ffffff"></path></svg>