<?xml version="1.0" standalone="no"?><!DOCTYPE svg PUBLIC "-//W3C//DTD SVG 1.1//EN" "http://www.w3.org/Graphics/SVG/1.1/DTD/svg11.dtd"><svg t="1716444913946" class="icon" viewBox="0 0 1024 1024" version="1.1" xmlns="http://www.w3.org/2000/svg" p-id="4530" xmlns:xlink="http://www.w3.org/1999/xlink" width="500" height="500"><path d="M511.900137 0.199961C334.534778 0.199961 190.162976 144.771724 190.162976 322.337044c0 168.467096 269.347393 455.810974 299.941418 488.004686l21.795743 22.895528 21.795743-22.895528c30.694005-32.193712 299.941418-319.637571 299.941417-488.004686C833.737278 144.771724 689.365475 0.199961 511.900137 0.199961z m0 478.806483c-83.583675 0-151.670377-68.086702-151.670377-151.770357 0-83.683656 68.086702-151.770357 151.670377-151.770358s151.670377 68.086702 151.670377 151.770358c0 83.583675-68.086702 151.770357-151.670377 151.770357z m0 0" fill="#ffffff" p-id="4531"></path><path d="M511.900137 1024c-254.450303 0-511.90002-45.491115-511.90002-132.374146 0-74.08553 186.26362-114.1777 360.629565-126.875219 27.59461-1.899629 52.489748 9.698106 55.789103 26.294864 3.399336 16.496778-16.196837 31.593829-43.791447 33.493458-190.062878 13.997266-272.546768 51.190002-272.546768 67.086897 0 25.39504 156.269479 72.085921 411.619606 72.085921 255.350127 0 411.619606-46.5909 411.619605-72.085921 0-18.796329-86.583089-50.490139-279.145479-62.487795-27.59461-1.699668-47.590705-16.496778-44.691271-32.993556 2.899434-16.596758 26.994728-28.594415 54.98926-26.894747 238.453427 14.997071 369.327866 58.388596 369.327865 122.576059 0 86.78305-257.449717 132.174185-511.900019 132.174185z m0 0" fill="#ffffff" p-id="4532"></path></svg>